# xmcd
#
# Track frame offsets:
#	150
#	16353
#	30248
#	46933
#	61980
#	80836
#	94478
#	109825
#	125748
#	139592
#	154739
#	174089
#	192010
#
# Disc length: 2786 seconds
#
# Revision: 1
# Processed by: cddbd v1.5.2PL0 Copyright (c) Steve Scherf et al.
# Submitted via: audiograbber 1.83.01
#
DISCID=a40ae00d
DTITLE=BZN - Leef je leven
DYEAR=1900
DGENRE=
TTITLE0=BZN - Alleen
TTITLE1=BZN - Ik wil bij jouw zijn
TTITLE2=BZN - Ik laat je los
TTITLE3=BZN - Ja, dat was jij
TTITLE4=BZN - Die mooie tijd
TTITLE5=BZN - Troubadour
TTITLE6=BZN - Maar als jij weg wilt gaan
TTITLE7=BZN - De zon, de zee
TTITLE8=BZN - Mijn platteland
TTITLE9=BZN - Leef je leven
TTITLE10=BZN - Niets is mooier
TTITLE11=BZN - Hou me vast
TTITLE12=BZN - Iedereen heeft zo z'n dromen
EXTD=
EXTT0=
EXTT1=
EXTT2=
EXTT3=
EXTT4=
EXTT5=
EXTT6=
EXTT7=
EXTT8=
EXTT9=
EXTT10=
EXTT11=
EXTT12=
PLAYORDER=
